HIERARCHY
ROOT hip
{
  OFFSET 0 0 0
  CHANNELS 6 Xposition Yposition Zposition Zrotation Yrotation Xrotation
  JOINT abdomen
  {
    OFFSET 0 20.6881 -0.73152
    CHANNELS 3 Zrotation Xrotation Yrotation
    JOINT chest
    {
      OFFSET 0 11.7043 -0.48768
      CHANNELS 3 Zrotation Xrotation Yrotation
      JOINT neck
      {
        OFFSET 0 22.1894 -2.19456
        CHANNELS 3 Zrotation Xrotation Yrotation
        JOINT head
        {
          OFFSET -0.24384 7.07133 1.2192
          CHANNELS 3 Zrotation Xrotation Yrotation
          JOINT leftEye
          {
            OFFSET 4.14528 8.04674 8.04672
            CHANNELS 3 Zrotation Xrotation Yrotation
            End Site
            {
              OFFSET 1 0 0
            }
          }
          JOINT rightEye
          {
            OFFSET -3.6576 8.04674 8.04672
            CHANNELS 3 Zrotation Xrotation Yrotation
            End Site
            {
              OFFSET 1 0 0
            }
          }
        }
      }
      JOINT rCollar
      {
        OFFSET -2.68224 19.2634 -4.8768
        CHANNELS 3 Zrotation Xrotation Yrotation
        JOINT rShldr
        {
          OFFSET -8.77824 -1.95073 1.46304
          CHANNELS 3 Zrotation Xrotation Yrotation
          JOINT rForeArm
          {
            OFFSET -28.1742 -1.7115 0.48768
            CHANNELS 3 Zrotation Xrotation Yrotation
            JOINT rHand
            {
              OFFSET -22.5879 0.773209 7.07136
              CHANNELS 3 Zrotation Xrotation Yrotation
              JOINT rThumb1
              {
                OFFSET -1.2192 -0.487915 3.41376
                CHANNELS 3 Zrotation Xrotation Yrotation
                JOINT rThumb2
                {
                  OFFSET -3.37035 -0.52449 3.41376
                  CHANNELS 3 Zrotation Xrotation Yrotation
                  End Site
                  {
                    OFFSET -1.78271 -1.18214 1.43049
                  }
                }
              }
              JOINT rIndex1
              {
                OFFSET -7.75947 0.938293 5.60832
                CHANNELS 3 Zrotation Xrotation Yrotation
                JOINT rIndex2
                {
                  OFFSET -2.54057 -0.884171 1.56538
                  CHANNELS 3 Zrotation Xrotation Yrotation
                  End Site
                  {
                    OFFSET -1.62519 -0.234802 1.16502
                  }
                }
              }
              JOINT rMid1
              {
                OFFSET -8.24714 1.18213 3.41376
                CHANNELS 3 Zrotation Xrotation Yrotation
                JOINT rMid2
                {
                  OFFSET -3.10165 -0.590103 1.0647
                  CHANNELS 3 Zrotation Xrotation Yrotation
                  End Site
                  {
                    OFFSET -2.48547 -0.328903 0.83742
                  }
                }
              }
              JOINT rRing1
              {
                OFFSET -8.82822 0.546677 1.51678
                CHANNELS 3 Zrotation Xrotation Yrotation
                JOINT rRing2
                {
                  OFFSET -2.60934 -0.819778 -0.0198488
                  CHANNELS 3 Zrotation Xrotation Yrotation
                  End Site
                  {
                    OFFSET -2.33842 -0.294052 0.168128
                  }
                }
              }
              JOINT rPinky1
              {
                OFFSET -8.27202 -0.0477905 -0.4584
                CHANNELS 3 Zrotation Xrotation Yrotation
                JOINT rPinky2
                {
                  OFFSET -1.82734 -0.647385 -0.700984
                  CHANNELS 3 Zrotation Xrotation Yrotation
                  End Site
                  {
                    OFFSET -1.69225 -0.51767 -0.607171
                  }
                }
              }
            }
          }
        }
      }
      JOINT lCollar
      {
        OFFSET 2.68224 19.2634 -4.8768
        CHANNELS 3 Zrotation Xrotation Yrotation
        JOINT lShldr
        {
          OFFSET 8.77824 -1.95073 1.46304
          CHANNELS 3 Zrotation Xrotation Yrotation
          JOINT lForeArm
          {
            OFFSET 28.1742 -1.7115 0.48768
            CHANNELS 3 Zrotation Xrotation Yrotation
            JOINT lHand
            {
              OFFSET 22.5879 0.773209 7.07136
              CHANNELS 3 Zrotation Xrotation Yrotation
              JOINT lThumb1
              {
                OFFSET 1.2192 -0.487915 3.41376
                CHANNELS 3 Zrotation Xrotation Yrotation
                JOINT lThumb2
                {
                  OFFSET 3.37035 -0.52449 3.41376
                  CHANNELS 3 Zrotation Xrotation Yrotation
                  End Site
                  {
                    OFFSET 1.78271 -1.18214 1.43049
                  }
                }
              }
              JOINT lIndex1
              {
                OFFSET 7.75947 0.938293 5.60832
                CHANNELS 3 Zrotation Xrotation Yrotation
                JOINT lIndex2
                {
                  OFFSET 2.54057 -0.884171 1.56538
                  CHANNELS 3 Zrotation Xrotation Yrotation
                  End Site
                  {
                    OFFSET 1.62519 -0.234802 1.16502
                  }
                }
              }
              JOINT lMid1
              {
                OFFSET 8.24714 1.18213 3.41376
                CHANNELS 3 Zrotation Xrotation Yrotation
                JOINT lMid2
                {
                  OFFSET 3.10165 -0.590103 1.0647
                  CHANNELS 3 Zrotation Xrotation Yrotation
                  End Site
                  {
                    OFFSET 2.48547 -0.328903 0.83742
                  }
                }
              }
              JOINT lRing1
              {
                OFFSET 8.82822 0.546677 1.51678
                CHANNELS 3 Zrotation Xrotation Yrotation
                JOINT lRing2
                {
                  OFFSET 2.60934 -0.819778 -0.0198488
                  CHANNELS 3 Zrotation Xrotation Yrotation
                  End Site
                  {
                    OFFSET 2.33842 -0.294052 0.168128
                  }
                }
              }
              JOINT lPinky1
              {
                OFFSET 8.27202 -0.0477905 -0.4584
                CHANNELS 3 Zrotation Xrotation Yrotation
                JOINT lPinky2
                {
                  OFFSET 1.82734 -0.647385 -0.700984
                  CHANNELS 3 Zrotation Xrotation Yrotation
                  End Site
                  {
                    OFFSET 1.69225 -0.51767 -0.607171
                  }
                }
              }
            }
          }
        }
      }
    }
  }
  JOINT rButtock
  {
    OFFSET -8.77824 4.35084 1.2192
    CHANNELS 3 Zrotation Xrotation Yrotation
    JOINT rThigh
    {
      OFFSET 0 -1.70687 -2.19456
      CHANNELS 3 Zrotation Xrotation Yrotation
      JOINT rShin
      {
        OFFSET 0 -36.8199 0.73152
        CHANNELS 3 Zrotation Xrotation Yrotation
        JOINT rFoot
        {
          OFFSET 0.73152 -45.1104 -5.12064
          CHANNELS 3 Zrotation Xrotation Yrotation
          End Site
          {
            OFFSET -1.1221 -3.69964 12.103
          }
        }
      }
    }
  }
  JOINT lButtock
  {
    OFFSET 8.77824 4.35084 1.2192
    CHANNELS 3 Zrotation Xrotation Yrotation
    JOINT lThigh
    {
      OFFSET 0 -1.70687 -2.19456
      CHANNELS 3 Zrotation Xrotation Yrotation
      JOINT lShin
      {
        OFFSET 0 -36.8199 0.73152
        CHANNELS 3 Zrotation Xrotation Yrotation
        JOINT lFoot
        {
          OFFSET -0.73152 -45.1104 -5.12064
          CHANNELS 3 Zrotation Xrotation Yrotation
          End Site
          {
            OFFSET 1.1221 -3.69964 12.103
          }
        }
      }
    }
  }
}
MOTION
Frames:	8
Frame Time:	0.03333
-36.9804 62.399899999999995 -2.9772 -176.193158 -35.158117 179.994239 -1.234529 14.554853 -5.289626 6.068617 -12.889261 0.442558 6.965815 28.118101 84.082938 -39.497583 8.296118 -133.417585 4.626735 0.904971 22.122918 0.277188 -0.010149 -4.193815 -155.413311 -5.899804 160.30591 -22.439556 17.045565 -13.575422 -143.572089 65.155179 -129.565397 -8.713367 53.469506 7.02105 -92.869722 35.45651 48.768142 15.866568 -18.37955 27.062936 -159.46222 -44.621707 126.786301 -126.918586 28.336218 105.36772 71.52726 -79.160273 41.560996 164.123656 -63.422558 128.984545 -67.300449 71.840626 84.716004 -161.579869 1.666859 175.183697 -76.517097 -59.047977 -72.592363 -156.644601 8.21947 -137.579268 0.648493 1.998471 3.324842 98.948583 -16.547917 174.326947 -73.534069 -33.19221 142.144564 36.639312 19.743074 -18.7116 10.596482 6.963434 2.56685 -44.457565 -49.804137 4.341239 -10.140214 -8.023285 0.108169 -4.95233 -11.319514 5.322023 37.080493 52.31272 -27.6504 11.276219 24.002653 -15.348356 149.801667 -4.519547 176.827031 163.308234 1.8808 176.64828 71.639635 -44.58253 78.75963 28.737902 -57.928933 30.833276 -0.689526 -3.448444 -0.0 -55.045556 -46.591934 -139.456464 -74.259845 8.993159 -172.211926 -10.542869 50.870425 -70.03585 -179.866969 75.5811 -0.090712 -155.93764 24.380227 132.751304 104.244288 -49.408225 0.101937 129.630177 -52.340797 39.576535
-37.0924 62.4784 -2.1366 -176.117824 -34.956004 -179.530089 -0.5602 9.635218 -167.507708 -2.281137 9.176366 162.638037 -2.234838 20.842001 16.952388 -13.105204 -29.108379 -72.170027 5.103483 0.911083 20.231132 -0.204256 0.00587 -3.292525 -160.071643 -67.111324 172.571992 54.120174 49.285145 -48.107923 -6.816292 4.086261 82.106222 -9.71512 54.240282 7.566392 -9.22608 2.718182 4.624259 -101.936589 10.947062 101.484118 -152.566145 -30.436195 126.18337 -151.61722 -5.064795 116.051857 3.11901 -1.2668 1.312754 -166.969493 -2.986819 144.708487 -144.077498 5.300854 177.349788 -54.223446 87.704977 67.033925 -77.930376 -57.168089 -74.502191 179.679673 62.610891 -138.726484 157.815924 -36.185747 -171.330727 -137.437402 -5.557181 165.48597 -177.312167 -0.800868 -33.446859 123.049808 41.924354 -110.457675 -4.493683 -10.845738 5.342712 30.863954 22.212168 -28.300938 -15.908623 -17.688703 0.282637 -1.776322 -5.119433 5.743357 -33.112984 -73.349047 -10.459325 9.446856 52.202987 -8.520444 150.422847 -4.090626 175.877677 81.342392 -72.360109 92.558685 -2.801316 -13.159815 11.617115 161.261214 35.429572 154.122218 179.620267 80.077424 0.0 144.185343 13.356074 8.675475 0.700655 68.057868 -45.089456 79.368324 34.18011 -0.682878 0.214923 0.344253 -0.27762 32.069121 -45.549127 -138.726535 -170.964889 -77.914124 -106.497818 63.707146 1.224919 135.656184
-37.5002 62.8944 -1.0028000000000001 -177.025249 -32.761707 -178.661614 -0.537973 9.592282 -176.774885 -3.838182 8.213555 172.818218 -12.758744 26.253714 -51.070684 35.189835 -15.792412 4.520794 6.908028 1.087564 17.873031 -0.802858 0.005378 -0.767641 -28.172688 57.422197 31.526749 -177.090081 -6.568176 129.734416 144.373782 -42.255033 35.353661 156.700677 -29.834221 145.161027 -92.39506 33.63762 48.920636 14.345018 -13.992821 28.713041 -160.73285 -43.752355 126.275317 -48.253502 53.353804 35.54427 -170.832491 -41.981323 140.496571 94.09731 -69.4401 62.989976 2.535605 -7.08489 0.710695 -43.230324 -82.639321 -63.382407 -115.88417 -43.851407 -113.967018 -17.880874 -24.19537 -12.444663 -1.473866 -18.221201 4.454481 -89.211795 44.31341 29.969653 93.418688 -36.802538 -75.819639 163.792811 -29.430878 -160.281622 169.172261 -1.162993 -93.242418 89.023225 15.297632 -35.23346 -3.694858 0.21425 -7.220549 3.794826 11.062878 12.138143 43.583098 52.244524 -33.078974 140.246325 26.955618 -123.80493 6.073437 26.645124 -4.033065 75.939191 62.94582 -94.603582 154.21514 60.143512 142.621587 146.229834 18.036819 134.035829 179.132574 80.366399 -0.0 144.98085 12.675424 84.253426 70.790348 0.793914 9.835846 -5.174614 -3.210316 -87.07862 -178.568777 75.420488 -1.478822 -160.00758 26.27542 84.598303 101.049957 10.478382 134.176844 -64.341197 40.484417 -168.858367
-38.2475 63.333099999999995 0.34199999999999997 -177.63031 -30.794535 -178.248767 -0.294994 14.32011 1.19251 4.071161 -12.071168 -4.09849 0.58574 40.079292 178.222045 5.567886 52.204608 125.301228 7.160873 0.938067 14.907497 -1.057989 0.001138 -0.123253 -42.031182 -86.318934 -64.570838 35.431778 7.534349 -22.998173 -10.406024 30.013057 85.111924 -9.333655 47.995372 7.820596 -175.932544 -9.58874 84.846046 -29.893692 -37.141961 11.096702 -170.250383 -53.114967 122.619324 -105.14814 52.254938 80.129776 -79.806985 55.11464 76.747586 -18.996959 65.492082 21.963268 -69.803903 69.941383 91.480474 -68.942579 -81.446221 -91.722128 -152.905551 42.826766 -151.046287 -147.415456 8.118843 -146.004084 156.616037 -5.724997 -161.529673 -125.206779 -21.685386 -167.960687 107.639755 -35.49744 -65.874965 162.393187 -21.351548 -155.899094 173.57003 -6.732016 -93.328757 119.973127 20.145722 -62.268544 -50.279236 -51.893998 -12.290756 -99.714666 -64.280691 -61.021336 153.154358 20.449889 -133.859424 2.282693 -6.972458 -1.635752 66.379802 77.906791 -78.34809 121.905863 66.533916 -114.208708 35.424889 -47.367556 46.198888 19.091971 -44.04412 13.166469 26.699431 0.491956 24.361022 -85.426252 -25.688882 -7.835172 59.035408 42.435259 -152.959483 7.042925 17.777397 89.963521 159.864358 74.539666 13.462273 -152.315972 26.851437 -12.813311 -162.631796 80.31863 -54.460453 155.924167 69.769288 95.612628
-39.324 63.844500000000004 1.8554000000000002 -178.165249 -28.175349 -178.232093 0.066609 9.655408 179.602865 -4.040742 6.359318 177.552141 9.323032 28.953714 91.593579 -42.230538 13.733199 -139.492376 6.496328 0.788956 13.834442 -2.480977 0.022767 -1.051362 -84.679387 67.656609 88.880411 37.824296 -51.916182 60.519131 -37.862456 -78.735841 35.588618 -9.87176 46.29579 7.579101 -105.25677 31.539547 59.4141 -135.221109 -26.958265 78.512249 -155.701959 -24.240161 121.915479 -92.088197 49.74006 59.443182 -173.160572 -40.141983 134.01637 -3.967314 5.63716 20.327407 5.631586 -9.974225 0.829627 10.179097 51.199967 -2.606122 -145.498593 12.936815 -142.783474 -161.650909 55.42379 -149.099203 83.542557 66.34554 -85.88875 102.208146 7.954331 -102.241619 172.540762 -11.989558 72.439578 18.357643 -56.114204 19.078226 -7.611764 -12.589155 3.638065 128.637348 -20.275486 -106.273551 -8.451721 -9.992652 -8.39846 170.179904 -25.023185 -128.556323 25.554981 35.400193 -18.665335 164.979467 -15.666686 -140.943701 78.629613 -66.860863 91.222405 123.517282 -26.661321 167.374023 144.607028 70.89812 156.685455 -79.416038 76.710104 36.970356 62.998143 30.88471 54.945278 -129.467599 7.914241 -92.69123 -49.395036 39.647398 120.830914 -148.831936 -14.6148 63.231388 176.206354 74.948688 -0.0 -159.834213 30.978046 -0.0 77.762058 78.836866 -16.203034 -178.484799 -10.384679 26.231816
-40.6827 64.3371 3.5718 -178.531084 -24.864309 -178.435839 0.255408 14.846299 -0.996708 4.035599 -10.465133 -1.212789 8.798145 27.700933 86.060192 -42.66261 8.758033 -133.867922 5.745875 0.725682 14.384494 -4.869276 0.167601 -3.940323 -9.413202 34.587886 12.659492 48.120912 -29.008529 49.070156 -130.2885 29.534255 40.723707 97.604611 -66.204327 87.763043 -93.763492 34.369477 54.192798 -46.323665 2.560584 46.935917 -169.859211 -43.723271 119.473406 -177.913431 0.086489 115.500346 -164.05086 -22.276489 133.483109 13.690667 -9.119077 22.711535 -67.497161 69.699808 92.337231 12.902421 -44.187869 -12.964693 11.599525 39.607651 10.651694 -160.641693 55.602468 -149.096913 0.641198 -0.813468 -2.75226 -72.732933 -13.074324 2.982847 -161.624631 -44.018694 -20.582553 120.852386 44.570997 -103.063307 170.684284 -4.555351 -92.722608 78.711678 16.361905 -29.175919 4.46013 1.535167 -12.172577 155.56424 -1.026171 -126.266588 164.606556 -7.122697 -137.67825 142.699513 36.332218 -130.033939 5.116624 -13.994134 9.699401 122.997411 31.293599 -143.877535 140.269452 61.033797 159.354839 -68.393042 79.127763 25.506725 -1.788042 -8.618887 2.00623 -41.817149 -45.429288 -51.470415 -31.632098 54.301698 -47.635561 149.437406 11.721286 -76.638785 -131.672892 69.206973 -37.41154 173.5943 35.766355 -9.945384 -96.743979 70.446448 -88.729192 -84.966909 -15.47497 -166.932631
-42.2609 64.7373 5.5972 -178.955948 -19.899973 -178.38539 0.050205 15.751167 -0.0 3.807048 -10.452393 -1.798797 9.207973 28.82085 93.901869 -42.877135 13.653669 -138.480186 5.516693 0.872518 17.961545 -6.647226 0.443589 -7.627205 -156.627611 -18.366205 163.490981 -37.736902 -47.432026 -39.835216 6.828928 -2.118294 -111.504736 160.710909 -32.202061 143.053541 -76.00964 37.528964 44.389218 -27.648775 3.403516 31.906629 -179.207239 -52.194521 114.740917 4.060614 -45.795211 -7.313819 -169.830445 -29.739572 131.649216 -6.411827 0.198917 27.6841 7.980154 -3.611701 0.715346 -166.461822 64.54897 -179.1047 1.465591 2.801397 2.224602 -155.840913 36.228523 -146.072901 -2.936173 -18.504866 -0.220003 -77.238457 29.796765 15.751535 8.808065 18.347159 -110.014224 15.955955 -60.8672 20.66912 3.163041 -0.413917 2.933121 153.738914 -51.884343 -105.335101 3.930883 0.318382 -8.510546 -132.982646 -69.685026 -76.239579 2.8837 -0.992092 -5.84116 88.919056 68.1453 -76.574154 61.93201 77.86488 -77.753112 15.486169 -0.843573 -0.01474 121.01004 -27.789994 128.701205 21.739186 -42.389051 23.357836 -2.866934 -8.412502 3.232067 -41.213714 -46.812013 78.344279 47.821838 -22.945382 -82.377274 -87.113252 7.554104 24.259502 -171.711903 75.380707 -8.561364 -169.923508 36.546001 172.82404 61.796675 -77.210279 141.774988 121.155861 -33.400583 -168.579897
-44.2847 65.1745 7.9703 -179.783288 -10.538126 -177.930043 0.573461 12.775161 -156.203825 0.081037 7.134359 154.646948 -7.649702 37.797923 -133.809759 38.662835 37.544282 73.764209 9.386217 2.300163 27.483089 -6.138247 0.26834 -5.001533 4.059162 -26.625353 -6.106527 42.013624 9.057221 24.381102 3.93395 -8.149958 82.045701 -8.554184 29.699755 3.537478 -2.227744 10.444358 -0.075935 78.161597 -77.379177 20.346295 -36.310143 31.540188 28.804697 -46.367717 52.527805 63.717801 177.177148 -43.778809 127.492408 -82.959133 38.14783 53.381808 8.544642 -1.655907 -0.764995 -149.551299 -41.58569 -165.641258 -132.175911 -21.410965 -130.926299 -158.588366 42.591423 -150.828067 152.907869 8.159298 -153.546488 -7.753234 -76.70095 -61.363821 -168.609107 67.89107 -55.728979 135.98409 37.332885 -118.706917 96.946819 39.673276 -52.690059 -49.184806 -42.513481 -32.721073 -9.637837 -18.527244 2.124819 60.742219 47.237944 -47.529325 -1.31948 -11.367083 -4.300427 9.771279 25.363359 1.971309 -3.141759 26.36771 -0.300141 10.192671 23.598625 -21.671747 43.52758 -48.973548 46.502009 150.602599 53.308506 151.501409 -68.948514 22.97462 -50.094716 83.574089 -25.166414 87.257969 55.0959 16.020957 55.599536 14.910222 26.458269 -125.461581 175.394797 76.309523 3.187324 -172.88368 41.937709 56.919863 80.820482 26.948777 34.333362 -134.931709 64.734984 39.905666
